<svg width="420" height="294" viewBox="0 0 420 294" fill="none" xmlns="http://www.w3.org/2000/svg">
<mask id="path-1-inside-1_347_2041" fill="white">
<path d="M107 0H313V54H107V0Z"/>
</mask>
<path d="M313 54V53H107V54V55H313V54Z" fill="#E7E5E4" mask="url(#path-1-inside-1_347_2041)"/>
<path d="M123.797 38H119.047L119.078 35.5469H123.797C125.422 35.5469 126.776 35.2083 127.859 34.5312C128.943 33.8438 129.755 32.8854 130.297 31.6562C130.849 30.4167 131.125 28.9688 131.125 27.3125V25.9219C131.125 24.6198 130.969 23.4635 130.656 22.4531C130.344 21.4323 129.885 20.5729 129.281 19.875C128.677 19.1667 127.938 18.6302 127.062 18.2656C126.198 17.901 125.203 17.7188 124.078 17.7188H118.953V15.25H124.078C125.568 15.25 126.927 15.5 128.156 16C129.385 16.4896 130.443 17.2031 131.328 18.1406C132.224 19.0677 132.911 20.1927 133.391 21.5156C133.87 22.8281 134.109 24.3073 134.109 25.9531V27.3125C134.109 28.9583 133.87 30.4427 133.391 31.7656C132.911 33.0781 132.219 34.1979 131.312 35.125C130.417 36.0521 129.333 36.7656 128.062 37.2656C126.802 37.7552 125.38 38 123.797 38ZM120.656 15.25V38H117.641V15.25H120.656ZM145.219 38.3125C144.042 38.3125 142.974 38.1146 142.016 37.7188C141.068 37.3125 140.25 36.7448 139.562 36.0156C138.885 35.2865 138.365 34.4219 138 33.4219C137.635 32.4219 137.453 31.3281 137.453 30.1406V29.4844C137.453 28.1094 137.656 26.8854 138.062 25.8125C138.469 24.7292 139.021 23.8125 139.719 23.0625C140.417 22.3125 141.208 21.7448 142.094 21.3594C142.979 20.974 143.896 20.7812 144.844 20.7812C146.052 20.7812 147.094 20.9896 147.969 21.4062C148.854 21.8229 149.578 22.4062 150.141 23.1562C150.703 23.8958 151.12 24.7708 151.391 25.7812C151.661 26.7812 151.797 27.875 151.797 29.0625V30.3594H139.172V28H148.906V27.7812C148.865 27.0312 148.708 26.3021 148.438 25.5938C148.177 24.8854 147.76 24.3021 147.188 23.8438C146.615 23.3854 145.833 23.1562 144.844 23.1562C144.188 23.1562 143.583 23.2969 143.031 23.5781C142.479 23.849 142.005 24.2552 141.609 24.7969C141.214 25.3385 140.906 26 140.688 26.7812C140.469 27.5625 140.359 28.4635 140.359 29.4844V30.1406C140.359 30.9427 140.469 31.6979 140.688 32.4062C140.917 33.1042 141.245 33.7188 141.672 34.25C142.109 34.7812 142.635 35.1979 143.25 35.5C143.875 35.8021 144.583 35.9531 145.375 35.9531C146.396 35.9531 147.26 35.7448 147.969 35.3281C148.677 34.9115 149.297 34.3542 149.828 33.6562L151.578 35.0469C151.214 35.599 150.75 36.125 150.188 36.625C149.625 37.125 148.932 37.5312 148.109 37.8438C147.297 38.1562 146.333 38.3125 145.219 38.3125ZM160.094 35.3906L164.719 21.0938H167.672L161.594 38H159.656L160.094 35.3906ZM156.234 21.0938L161 35.4688L161.328 38H159.391L153.266 21.0938H156.234ZM177.25 38.3125C176.073 38.3125 175.005 38.1146 174.047 37.7188C173.099 37.3125 172.281 36.7448 171.594 36.0156C170.917 35.2865 170.396 34.4219 170.031 33.4219C169.667 32.4219 169.484 31.3281 169.484 30.1406V29.4844C169.484 28.1094 169.688 26.8854 170.094 25.8125C170.5 24.7292 171.052 23.8125 171.75 23.0625C172.448 22.3125 173.24 21.7448 174.125 21.3594C175.01 20.974 175.927 20.7812 176.875 20.7812C178.083 20.7812 179.125 20.9896 180 21.4062C180.885 21.8229 181.609 22.4062 182.172 23.1562C182.734 23.8958 183.151 24.7708 183.422 25.7812C183.693 26.7812 183.828 27.875 183.828 29.0625V30.3594H171.203V28H180.938V27.7812C180.896 27.0312 180.74 26.3021 180.469 25.5938C180.208 24.8854 179.792 24.3021 179.219 23.8438C178.646 23.3854 177.865 23.1562 176.875 23.1562C176.219 23.1562 175.615 23.2969 175.062 23.5781C174.51 23.849 174.036 24.2552 173.641 24.7969C173.245 25.3385 172.938 26 172.719 26.7812C172.5 27.5625 172.391 28.4635 172.391 29.4844V30.1406C172.391 30.9427 172.5 31.6979 172.719 32.4062C172.948 33.1042 173.276 33.7188 173.703 34.25C174.141 34.7812 174.667 35.1979 175.281 35.5C175.906 35.8021 176.615 35.9531 177.406 35.9531C178.427 35.9531 179.292 35.7448 180 35.3281C180.708 34.9115 181.328 34.3542 181.859 33.6562L183.609 35.0469C183.245 35.599 182.781 36.125 182.219 36.625C181.656 37.125 180.964 37.5312 180.141 37.8438C179.328 38.1562 178.365 38.3125 177.25 38.3125ZM190.344 14V38H187.438V14H190.344ZM194.219 29.7344V29.375C194.219 28.1562 194.396 27.026 194.75 25.9844C195.104 24.9323 195.615 24.0208 196.281 23.25C196.948 22.4688 197.755 21.8646 198.703 21.4375C199.651 21 200.714 20.7812 201.891 20.7812C203.078 20.7812 204.146 21 205.094 21.4375C206.052 21.8646 206.865 22.4688 207.531 23.25C208.208 24.0208 208.724 24.9323 209.078 25.9844C209.432 27.026 209.609 28.1562 209.609 29.375V29.7344C209.609 30.9531 209.432 32.0833 209.078 33.125C208.724 34.1667 208.208 35.0781 207.531 35.8594C206.865 36.6302 206.057 37.2344 205.109 37.6719C204.172 38.099 203.109 38.3125 201.922 38.3125C200.734 38.3125 199.667 38.099 198.719 37.6719C197.771 37.2344 196.958 36.6302 196.281 35.8594C195.615 35.0781 195.104 34.1667 194.75 33.125C194.396 32.0833 194.219 30.9531 194.219 29.7344ZM197.109 29.375V29.7344C197.109 30.5781 197.208 31.375 197.406 32.125C197.604 32.8646 197.901 33.5208 198.297 34.0938C198.703 34.6667 199.208 35.1198 199.812 35.4531C200.417 35.776 201.12 35.9375 201.922 35.9375C202.714 35.9375 203.406 35.776 204 35.4531C204.604 35.1198 205.104 34.6667 205.5 34.0938C205.896 33.5208 206.193 32.8646 206.391 32.125C206.599 31.375 206.703 30.5781 206.703 29.7344V29.375C206.703 28.5417 206.599 27.7552 206.391 27.0156C206.193 26.2656 205.891 25.6042 205.484 25.0312C205.089 24.4479 204.589 23.9896 203.984 23.6562C203.391 23.3229 202.693 23.1562 201.891 23.1562C201.099 23.1562 200.401 23.3229 199.797 23.6562C199.203 23.9896 198.703 24.4479 198.297 25.0312C197.901 25.6042 197.604 26.2656 197.406 27.0156C197.208 27.7552 197.109 28.5417 197.109 29.375ZM216.125 24.3438V44.5H213.219V21.0938H215.875L216.125 24.3438ZM227.516 29.4062V29.7344C227.516 30.9635 227.37 32.1042 227.078 33.1562C226.786 34.1979 226.359 35.1042 225.797 35.875C225.245 36.6458 224.562 37.2448 223.75 37.6719C222.938 38.099 222.005 38.3125 220.953 38.3125C219.88 38.3125 218.932 38.1354 218.109 37.7812C217.286 37.4271 216.589 36.9115 216.016 36.2344C215.443 35.5573 214.984 34.7448 214.641 33.7969C214.307 32.849 214.078 31.7812 213.953 30.5938V28.8438C214.078 27.5938 214.312 26.474 214.656 25.4844C215 24.4948 215.453 23.651 216.016 22.9531C216.589 22.2448 217.281 21.7083 218.094 21.3438C218.906 20.9688 219.844 20.7812 220.906 20.7812C221.969 20.7812 222.911 20.9896 223.734 21.4062C224.557 21.8125 225.25 22.3958 225.812 23.1562C226.375 23.9167 226.797 24.8281 227.078 25.8906C227.37 26.9427 227.516 28.1146 227.516 29.4062ZM224.609 29.7344V29.4062C224.609 28.5625 224.521 27.7708 224.344 27.0312C224.167 26.2812 223.891 25.625 223.516 25.0625C223.151 24.4896 222.682 24.0417 222.109 23.7188C221.536 23.3854 220.854 23.2188 220.062 23.2188C219.333 23.2188 218.698 23.3438 218.156 23.5938C217.625 23.8438 217.172 24.1823 216.797 24.6094C216.422 25.026 216.115 25.5052 215.875 26.0469C215.646 26.5781 215.474 27.1302 215.359 27.7031V31.75C215.568 32.4792 215.859 33.1667 216.234 33.8125C216.609 34.4479 217.109 34.9635 217.734 35.3594C218.359 35.7448 219.146 35.9375 220.094 35.9375C220.875 35.9375 221.547 35.776 222.109 35.4531C222.682 35.1198 223.151 34.6667 223.516 34.0938C223.891 33.5208 224.167 32.8646 224.344 32.125C224.521 31.375 224.609 30.5781 224.609 29.7344ZM238.219 38.3125C237.042 38.3125 235.974 38.1146 235.016 37.7188C234.068 37.3125 233.25 36.7448 232.562 36.0156C231.885 35.2865 231.365 34.4219 231 33.4219C230.635 32.4219 230.453 31.3281 230.453 30.1406V29.4844C230.453 28.1094 230.656 26.8854 231.062 25.8125C231.469 24.7292 232.021 23.8125 232.719 23.0625C233.417 22.3125 234.208 21.7448 235.094 21.3594C235.979 20.974 236.896 20.7812 237.844 20.7812C239.052 20.7812 240.094 20.9896 240.969 21.4062C241.854 21.8229 242.578 22.4062 243.141 23.1562C243.703 23.8958 244.12 24.7708 244.391 25.7812C244.661 26.7812 244.797 27.875 244.797 29.0625V30.3594H232.172V28H241.906V27.7812C241.865 27.0312 241.708 26.3021 241.438 25.5938C241.177 24.8854 240.76 24.3021 240.188 23.8438C239.615 23.3854 238.833 23.1562 237.844 23.1562C237.188 23.1562 236.583 23.2969 236.031 23.5781C235.479 23.849 235.005 24.2552 234.609 24.7969C234.214 25.3385 233.906 26 233.688 26.7812C233.469 27.5625 233.359 28.4635 233.359 29.4844V30.1406C233.359 30.9427 233.469 31.6979 233.688 32.4062C233.917 33.1042 234.245 33.7188 234.672 34.25C235.109 34.7812 235.635 35.1979 236.25 35.5C236.875 35.8021 237.583 35.9531 238.375 35.9531C239.396 35.9531 240.26 35.7448 240.969 35.3281C241.677 34.9115 242.297 34.3542 242.828 33.6562L244.578 35.0469C244.214 35.599 243.75 36.125 243.188 36.625C242.625 37.125 241.932 37.5312 241.109 37.8438C240.297 38.1562 239.333 38.3125 238.219 38.3125ZM258.828 34.7188V14H261.734V38H259.078L258.828 34.7188ZM247.453 29.7344V29.4062C247.453 28.1146 247.609 26.9427 247.922 25.8906C248.245 24.8281 248.698 23.9167 249.281 23.1562C249.875 22.3958 250.578 21.8125 251.391 21.4062C252.214 20.9896 253.13 20.7812 254.141 20.7812C255.203 20.7812 256.13 20.9688 256.922 21.3438C257.724 21.7083 258.401 22.2448 258.953 22.9531C259.516 23.651 259.958 24.4948 260.281 25.4844C260.604 26.474 260.828 27.5938 260.953 28.8438V30.2812C260.839 31.5208 260.615 32.6354 260.281 33.625C259.958 34.6146 259.516 35.4583 258.953 36.1562C258.401 36.8542 257.724 37.3906 256.922 37.7656C256.12 38.1302 255.182 38.3125 254.109 38.3125C253.12 38.3125 252.214 38.099 251.391 37.6719C250.578 37.2448 249.875 36.6458 249.281 35.875C248.698 35.1042 248.245 34.1979 247.922 33.1562C247.609 32.1042 247.453 30.9635 247.453 29.7344ZM250.359 29.4062V29.7344C250.359 30.5781 250.443 31.3698 250.609 32.1094C250.786 32.849 251.057 33.5 251.422 34.0625C251.786 34.625 252.25 35.0677 252.812 35.3906C253.375 35.7031 254.047 35.8594 254.828 35.8594C255.786 35.8594 256.573 35.6562 257.188 35.25C257.812 34.8438 258.312 34.3073 258.688 33.6406C259.062 32.974 259.354 32.25 259.562 31.4688V27.7031C259.438 27.1302 259.255 26.5781 259.016 26.0469C258.786 25.5052 258.484 25.026 258.109 24.6094C257.745 24.1823 257.292 23.8438 256.75 23.5938C256.219 23.3438 255.589 23.2188 254.859 23.2188C254.068 23.2188 253.385 23.3854 252.812 23.7188C252.25 24.0417 251.786 24.4896 251.422 25.0625C251.057 25.625 250.786 26.2812 250.609 27.0312C250.443 27.7708 250.359 28.5625 250.359 29.4062ZM274.156 14H277.062V34.7188L276.812 38H274.156V14ZM288.484 29.4062V29.7344C288.484 30.9635 288.339 32.1042 288.047 33.1562C287.755 34.1979 287.328 35.1042 286.766 35.875C286.203 36.6458 285.516 37.2448 284.703 37.6719C283.891 38.099 282.958 38.3125 281.906 38.3125C280.833 38.3125 279.891 38.1302 279.078 37.7656C278.276 37.3906 277.599 36.8542 277.047 36.1562C276.495 35.4583 276.052 34.6146 275.719 33.625C275.396 32.6354 275.172 31.5208 275.047 30.2812V28.8438C275.172 27.5938 275.396 26.474 275.719 25.4844C276.052 24.4948 276.495 23.651 277.047 22.9531C277.599 22.2448 278.276 21.7083 279.078 21.3438C279.88 20.9688 280.812 20.7812 281.875 20.7812C282.938 20.7812 283.88 20.9896 284.703 21.4062C285.526 21.8125 286.214 22.3958 286.766 23.1562C287.328 23.9167 287.755 24.8281 288.047 25.8906C288.339 26.9427 288.484 28.1146 288.484 29.4062ZM285.578 29.7344V29.4062C285.578 28.5625 285.5 27.7708 285.344 27.0312C285.188 26.2812 284.938 25.625 284.594 25.0625C284.25 24.4896 283.797 24.0417 283.234 23.7188C282.672 23.3854 281.979 23.2188 281.156 23.2188C280.427 23.2188 279.792 23.3438 279.25 23.5938C278.719 23.8438 278.266 24.1823 277.891 24.6094C277.516 25.026 277.208 25.5052 276.969 26.0469C276.74 26.5781 276.568 27.1302 276.453 27.7031V31.4688C276.62 32.1979 276.891 32.901 277.266 33.5781C277.651 34.2448 278.161 34.7917 278.797 35.2188C279.443 35.6458 280.24 35.8594 281.188 35.8594C281.969 35.8594 282.635 35.7031 283.188 35.3906C283.75 35.0677 284.203 34.625 284.547 34.0625C284.901 33.5 285.161 32.849 285.328 32.1094C285.495 31.3698 285.578 30.5781 285.578 29.7344ZM296.703 36.25L301.406 21.0938H304.5L297.719 40.6094C297.562 41.026 297.354 41.474 297.094 41.9531C296.844 42.4427 296.521 42.9062 296.125 43.3438C295.729 43.7812 295.25 44.1354 294.688 44.4062C294.135 44.6875 293.474 44.8281 292.703 44.8281C292.474 44.8281 292.182 44.7969 291.828 44.7344C291.474 44.6719 291.224 44.6198 291.078 44.5781L291.062 42.2344C291.146 42.2448 291.276 42.2552 291.453 42.2656C291.641 42.2865 291.771 42.2969 291.844 42.2969C292.5 42.2969 293.057 42.2083 293.516 42.0312C293.974 41.8646 294.359 41.5781 294.672 41.1719C294.995 40.776 295.271 40.2292 295.5 39.5312L296.703 36.25ZM293.25 21.0938L297.641 34.2188L298.391 37.2656L296.312 38.3281L290.094 21.0938H293.25Z" fill="#52525B"/>
<path d="M145.664 242.944C144.384 242.944 143.104 242.88 141.824 242.752C140.544 242.624 139.2 242.432 137.792 242.176C129.088 240.512 121.216 237.632 114.176 233.536C107.136 229.44 100.8 224.64 95.168 219.136C89.664 213.76 84.608 208.064 80 202.048C75.52 196.032 71.424 190.272 67.712 184.768C64 179.136 60.544 174.208 57.344 169.984C57.088 169.344 56.768 169.152 56.384 169.408C56.128 169.664 56 169.792 56 169.792C53.184 175.168 50.56 180.224 48.128 184.96C45.824 189.568 44.096 193.28 42.944 196.096C41.92 198.912 41.408 200.896 41.408 202.048C41.408 203.84 42.112 204.736 43.52 204.736C45.312 204.736 47.232 203.52 49.28 201.088C50.688 199.424 51.968 197.888 53.12 196.48C54.4 194.944 55.488 194.304 56.384 194.56C56.512 194.688 56.576 194.88 56.576 195.136C56.576 195.776 56.128 196.672 55.232 197.824C54.336 198.848 53.824 199.424 53.696 199.552C52.8 200.832 51.584 202.56 50.048 204.736C48.64 206.912 47.104 208.832 45.44 210.496C43.904 212.288 42.24 213.184 40.448 213.184C40.192 213.184 39.424 213.056 38.144 212.8C36.992 212.544 35.84 212.224 34.688 211.84C33.664 211.456 33.088 211.008 32.96 210.496C32.704 208.064 33.28 204.672 34.688 200.32C36.224 195.84 38.272 190.912 40.832 185.536C43.392 180.16 46.016 174.912 48.704 169.792C46.656 169.28 45.184 168.832 44.288 168.448C43.008 167.552 42.368 166.336 42.368 164.8C42.368 163.52 42.88 162.368 43.904 161.344C44.928 160.32 46.464 159.808 48.512 159.808C49.152 159.808 49.92 159.936 50.816 160.192C51.712 160.448 52.416 160.896 52.928 161.536C55.104 157.696 57.024 154.176 58.688 150.976C60.48 147.776 61.76 145.28 62.528 143.488C63.296 142.08 63.808 140.928 64.064 140.032C64.32 139.008 64.448 138.24 64.448 137.728C64.448 136.96 64.32 136.32 64.064 135.808C64.32 134.272 65.216 132.224 66.752 129.664C68.416 127.104 70.464 124.544 72.896 121.984C75.328 119.424 77.952 117.312 80.768 115.648C83.584 113.856 86.208 112.96 88.64 112.96C89.408 112.96 90.56 113.216 92.096 113.728C93.76 114.112 95.296 114.752 96.704 115.648C98.24 116.544 99.2 117.824 99.584 119.488C99.712 119.872 99.776 120.256 99.776 120.64C99.776 121.024 99.648 121.216 99.392 121.216C99.136 121.216 98.752 121.152 98.24 121.024C97.856 120.768 97.536 120.64 97.28 120.64C93.696 120.64 89.664 122.816 85.184 127.168C80.832 131.392 76.352 136.832 71.744 143.488C67.264 150.144 63.04 157.056 59.072 164.224C59.712 164.352 60.416 164.544 61.184 164.8C62.08 164.928 63.104 164.992 64.256 164.992C64.768 164.992 65.216 164.992 65.6 164.992C66.112 164.992 66.624 164.928 67.136 164.8C75.328 163.904 83.648 162.304 92.096 160C100.672 157.696 108.672 154.688 116.096 150.976C123.52 147.264 129.664 142.912 134.528 137.92C139.008 133.184 141.248 128.32 141.248 123.328C141.248 119.616 139.84 116.16 137.024 112.96C134.208 109.76 129.792 107.328 123.776 105.664C120.192 104.64 116.096 103.872 111.488 103.36C107.008 102.848 102.144 102.592 96.896 102.592C88.704 102.592 80.256 103.296 71.552 104.704C62.976 106.112 54.912 108.288 47.36 111.232C39.808 114.048 33.472 117.632 28.352 121.984C23.232 126.336 20.16 131.52 19.136 137.536C18.752 140.608 19.328 143.04 20.864 144.832C22.4 146.624 24.256 148.032 26.432 149.056C28.736 149.952 30.528 150.784 31.808 151.552C32.704 152.32 33.152 152.96 33.152 153.472C33.152 154.368 32.32 154.688 30.656 154.432C28.864 154.048 26.624 153.152 23.936 151.744C21.376 150.336 19.072 148.416 17.024 145.984C15.104 143.424 14.144 140.48 14.144 137.152C14.144 136.64 14.144 136.128 14.144 135.616C14.272 135.104 14.4 134.592 14.528 134.08C14.528 133.952 14.464 133.568 14.336 132.928C14.336 132.16 14.336 131.52 14.336 131.008C15.104 127.04 17.024 123.328 20.096 119.872C23.296 116.288 26.88 113.152 30.848 110.464C34.944 107.648 38.72 105.408 42.176 103.744C48.192 100.8 55.424 98.496 63.872 96.832C72.32 95.04 81.152 94.144 90.368 94.144C96 94.144 101.568 94.528 107.072 95.296C112.704 96.064 118.144 97.28 123.392 98.944C130.688 101.376 136.32 105.152 140.288 110.272C144.384 115.264 146.24 120.512 145.856 126.016C145.472 131.264 143.616 136 140.288 140.224C137.088 144.448 132.928 148.16 127.808 151.36C122.816 154.432 117.248 157.12 111.104 159.424C105.088 161.6 99.008 163.392 92.864 164.8C87.872 165.824 82.624 166.656 77.12 167.296C71.616 167.936 66.432 168.384 61.568 168.64C67.072 175.424 72.512 182.272 77.888 189.184C83.392 195.968 89.216 202.368 95.36 208.384C101.632 214.4 108.48 219.52 115.904 223.744C123.328 228.096 131.712 231.168 141.056 232.96C142.976 233.344 144.96 233.536 147.008 233.536C150.336 233.536 153.6 233.024 156.8 232C160.128 230.976 162.88 229.376 165.056 227.2C167.232 225.024 168.32 222.144 168.32 218.56C168.32 217.92 168.256 217.28 168.128 216.64C168.128 216 168.064 215.36 167.936 214.72C167.936 214.464 167.872 214.272 167.744 214.144C167.744 214.016 167.744 213.888 167.744 213.76C167.744 212.608 168.192 212.032 169.088 212.032C170.368 212.032 171.2 212.992 171.584 214.912C171.968 216.832 172.16 218.624 172.16 220.288C172.16 222.208 171.968 224 171.584 225.664C171.328 227.328 170.944 228.864 170.432 230.272C169.28 233.856 166.336 236.864 161.6 239.296C156.992 241.728 151.68 242.944 145.664 242.944ZM172.561 209.92C170.385 209.92 168.337 209.408 166.417 208.384C164.625 207.36 163.281 205.44 162.385 202.624C162.001 201.472 161.809 199.872 161.809 197.824C161.809 195.008 162.193 191.872 162.961 188.416C163.729 184.96 164.561 182.016 165.457 179.584C164.817 179.84 163.601 180.992 161.809 183.04C160.145 184.96 158.033 187.328 155.473 190.144C153.041 192.832 150.289 195.584 147.217 198.4C144.273 201.088 141.201 203.328 138.001 205.12C134.801 206.912 131.665 207.808 128.593 207.808C126.545 207.808 124.369 207.232 122.065 206.08C119.761 204.8 117.905 203.2 116.497 201.28C114.577 198.72 113.617 196.096 113.617 193.408C113.617 189.952 114.769 186.368 117.073 182.656C119.505 178.944 122.577 175.36 126.289 171.904C130.129 168.32 134.161 165.12 138.385 162.304C142.737 159.36 146.833 156.928 150.673 155.008C154.641 152.96 157.841 151.616 160.273 150.976C162.833 150.208 165.713 149.824 168.913 149.824C170.705 149.824 172.561 150.08 174.481 150.592C176.401 150.976 178.001 151.68 179.281 152.704C180.305 153.216 181.137 153.92 181.777 154.816C182.417 155.712 182.737 156.672 182.737 157.696C182.737 158.72 182.289 159.04 181.393 158.656C180.369 157.12 178.961 156.16 177.169 155.776C175.505 155.264 173.777 155.008 171.985 155.008C166.865 155.008 161.233 156.672 155.089 160C148.945 163.328 143.441 167.232 138.577 171.712C137.041 172.992 134.929 175.232 132.241 178.432C129.681 181.504 127.313 184.896 125.137 188.608C122.961 192.32 121.873 195.712 121.873 198.784C121.873 200.448 122.321 201.92 123.217 203.2C123.729 204.096 124.561 204.544 125.713 204.544C127.505 204.544 129.873 203.584 132.817 201.664C135.889 199.744 139.025 197.44 142.225 194.752C145.425 191.936 148.305 189.248 150.865 186.688C153.553 184.128 155.473 182.272 156.625 181.12C157.265 180.48 158.481 179.2 160.273 177.28C162.193 175.232 164.241 173.056 166.417 170.752C168.593 168.448 170.513 166.464 172.177 164.8C173.969 163.136 175.121 162.304 175.633 162.304C176.273 162.304 177.297 162.496 178.705 162.88C180.241 163.136 181.521 163.584 182.545 164.224C183.569 164.864 183.761 165.696 183.121 166.72C179.793 171.584 177.105 176.704 175.057 182.08C173.137 187.328 171.985 191.488 171.601 194.56C171.473 195.072 171.409 195.584 171.409 196.096C171.409 196.48 171.409 196.928 171.409 197.44C171.409 202.56 173.201 205.12 176.785 205.12C178.705 205.12 181.265 203.968 184.465 201.664C187.665 199.36 190.929 196.608 194.257 193.408C197.585 190.208 200.593 187.136 203.281 184.192C206.097 181.12 208.017 178.816 209.041 177.28C209.425 176.896 209.809 176.704 210.193 176.704C210.705 176.704 211.153 176.96 211.537 177.472C211.921 177.856 211.921 178.368 211.537 179.008C210.129 181.312 208.081 184.064 205.393 187.264C202.705 190.464 199.697 193.664 196.369 196.864C193.041 200.064 189.777 202.816 186.577 205.12C184.913 206.4 182.801 207.488 180.241 208.384C177.681 209.408 175.121 209.92 172.561 209.92ZM316.373 209.92C314.197 209.92 312.149 209.408 310.229 208.384C308.437 207.36 307.093 205.44 306.197 202.624C305.813 201.472 305.621 199.872 305.621 197.824C305.621 195.008 306.005 191.872 306.773 188.416C307.541 184.96 308.373 182.016 309.269 179.584C308.629 179.84 307.413 180.992 305.621 183.04C303.957 184.96 301.845 187.328 299.285 190.144C296.853 192.832 294.101 195.584 291.029 198.4C288.085 201.088 285.013 203.328 281.813 205.12C278.613 206.912 275.477 207.808 272.405 207.808C270.357 207.808 268.181 207.232 265.877 206.08C263.573 204.8 261.717 203.2 260.309 201.28C258.389 198.72 257.429 196.096 257.429 193.408C257.429 189.952 258.581 186.368 260.885 182.656C263.317 178.944 266.389 175.36 270.101 171.904C273.941 168.32 277.973 165.12 282.197 162.304C286.549 159.36 290.645 156.928 294.485 155.008C298.453 152.96 301.653 151.616 304.085 150.976C306.645 150.208 309.525 149.824 312.725 149.824C314.517 149.824 316.373 150.08 318.293 150.592C320.213 150.976 321.813 151.68 323.093 152.704C324.117 153.216 324.949 153.92 325.589 154.816C326.229 155.712 326.549 156.672 326.549 157.696C326.549 158.72 326.101 159.04 325.205 158.656C324.181 157.12 322.773 156.16 320.981 155.776C319.317 155.264 317.589 155.008 315.797 155.008C310.677 155.008 305.045 156.672 298.901 160C292.757 163.328 287.253 167.232 282.389 171.712C280.853 172.992 278.741 175.232 276.053 178.432C273.493 181.504 271.125 184.896 268.949 188.608C266.773 192.32 265.685 195.712 265.685 198.784C265.685 200.448 266.133 201.92 267.029 203.2C267.541 204.096 268.373 204.544 269.525 204.544C271.317 204.544 273.685 203.584 276.629 201.664C279.701 199.744 282.837 197.44 286.037 194.752C289.237 191.936 292.117 189.248 294.677 186.688C297.365 184.128 299.285 182.272 300.437 181.12C301.077 180.48 302.293 179.2 304.085 177.28C306.005 175.232 308.053 173.056 310.229 170.752C312.405 168.448 314.325 166.464 315.989 164.8C317.781 163.136 318.933 162.304 319.445 162.304C320.085 162.304 321.109 162.496 322.517 162.88C324.053 163.136 325.333 163.584 326.357 164.224C327.381 164.864 327.573 165.696 326.933 166.72C323.605 171.584 320.917 176.704 318.869 182.08C316.949 187.328 315.797 191.488 315.413 194.56C315.285 195.072 315.221 195.584 315.221 196.096C315.221 196.48 315.221 196.928 315.221 197.44C315.221 202.56 317.013 205.12 320.597 205.12C322.517 205.12 325.077 203.968 328.277 201.664C331.477 199.36 334.741 196.608 338.069 193.408C341.397 190.208 344.405 187.136 347.093 184.192C349.909 181.12 351.829 178.816 352.853 177.28C353.237 176.896 353.621 176.704 354.005 176.704C354.517 176.704 354.965 176.96 355.349 177.472C355.733 177.856 355.733 178.368 355.349 179.008C353.941 181.312 351.893 184.064 349.205 187.264C346.517 190.464 343.509 193.664 340.181 196.864C336.853 200.064 333.589 202.816 330.389 205.12C328.725 206.4 326.613 207.488 324.053 208.384C321.493 209.408 318.933 209.92 316.373 209.92Z" fill="#18181B"/>
<path d="M208.105 217.6C202.985 217.6 200.425 216.192 200.425 213.376C200.425 211.328 201.513 209.216 203.689 207.04C205.353 205.376 207.209 204.032 209.257 203.008C211.305 201.984 212.585 201.472 213.097 201.472C213.737 201.472 214.057 201.728 214.057 202.24C214.185 202.752 213.929 203.136 213.289 203.392C212.009 204.16 210.537 205.248 208.873 206.656C207.337 207.936 206.569 209.344 206.569 210.88C206.569 212.928 207.785 213.952 210.217 213.952C213.161 213.952 216.233 213.056 219.433 211.264C222.633 209.6 225.577 207.424 228.265 204.736C231.081 202.048 233.321 199.36 234.985 196.672C236.777 193.856 237.673 191.424 237.673 189.376C237.673 187.712 237.097 186.176 235.945 184.768C234.793 183.36 232.425 181.696 228.841 179.776C226.409 178.368 224.041 176.896 221.737 175.36C219.561 173.824 217.897 171.968 216.745 169.792C215.721 171.584 214.377 173.76 212.713 176.32C211.177 178.752 209.321 181.312 207.145 184C206.377 184.768 205.609 185.152 204.841 185.152C204.073 185.152 203.689 184.832 203.689 184.192C203.689 183.808 204.009 183.168 204.648 182.272C208.105 178.176 210.665 174.4 212.329 170.944C213.993 167.488 215.145 164.864 215.785 163.072C216.297 159.36 218.025 155.84 220.969 152.512C223.913 149.184 227.497 146.304 231.721 143.872C235.945 141.312 240.233 139.328 244.585 137.92C249.065 136.512 253.033 135.808 256.489 135.808C259.945 135.808 263.017 136.448 265.705 137.728C268.393 139.008 269.737 141.056 269.737 143.872C269.737 145.408 269.289 147.072 268.393 148.864C267.241 151.296 265.321 153.472 262.633 155.392C262.505 155.52 262.313 155.584 262.057 155.584C261.033 155.584 260.521 155.136 260.521 154.24C260.521 153.6 260.841 152.96 261.481 152.32C262.505 151.424 263.337 150.336 263.977 149.056C264.617 147.776 264.937 146.56 264.937 145.408C264.937 143.104 263.593 141.952 260.905 141.952C258.089 141.952 254.377 142.72 249.769 144.256C245.289 145.792 241.129 147.776 237.289 150.208C232.937 153.024 229.289 156.096 226.345 159.424C223.401 162.752 221.929 165.696 221.929 168.256C221.929 169.536 222.313 170.752 223.081 171.904C223.977 172.928 225.641 174.144 228.073 175.552C229.353 176.32 231.145 177.344 233.449 178.624C235.753 179.776 237.737 180.864 239.401 181.888C244.649 185.088 247.273 188.48 247.273 192.064C247.273 195.008 245.993 198.016 243.433 201.088C240.873 204.032 237.545 206.72 233.449 209.152C229.481 211.712 225.257 213.76 220.777 215.296C216.297 216.832 212.073 217.6 208.105 217.6Z" fill="#F97316"/>
<path d="M299.797 246H295.047L295.078 243.547H299.797C301.422 243.547 302.776 243.208 303.859 242.531C304.943 241.844 305.755 240.885 306.297 239.656C306.849 238.417 307.125 236.969 307.125 235.312V233.922C307.125 232.62 306.969 231.464 306.656 230.453C306.344 229.432 305.885 228.573 305.281 227.875C304.677 227.167 303.938 226.63 303.062 226.266C302.198 225.901 301.203 225.719 300.078 225.719H294.953V223.25H300.078C301.568 223.25 302.927 223.5 304.156 224C305.385 224.49 306.443 225.203 307.328 226.141C308.224 227.068 308.911 228.193 309.391 229.516C309.87 230.828 310.109 232.307 310.109 233.953V235.312C310.109 236.958 309.87 238.443 309.391 239.766C308.911 241.078 308.219 242.198 307.312 243.125C306.417 244.052 305.333 244.766 304.062 245.266C302.802 245.755 301.38 246 299.797 246ZM296.656 223.25V246H293.641V223.25H296.656ZM321.219 246.312C320.042 246.312 318.974 246.115 318.016 245.719C317.068 245.312 316.25 244.745 315.562 244.016C314.885 243.286 314.365 242.422 314 241.422C313.635 240.422 313.453 239.328 313.453 238.141V237.484C313.453 236.109 313.656 234.885 314.062 233.812C314.469 232.729 315.021 231.812 315.719 231.062C316.417 230.312 317.208 229.745 318.094 229.359C318.979 228.974 319.896 228.781 320.844 228.781C322.052 228.781 323.094 228.99 323.969 229.406C324.854 229.823 325.578 230.406 326.141 231.156C326.703 231.896 327.12 232.771 327.391 233.781C327.661 234.781 327.797 235.875 327.797 237.062V238.359H315.172V236H324.906V235.781C324.865 235.031 324.708 234.302 324.438 233.594C324.177 232.885 323.76 232.302 323.188 231.844C322.615 231.385 321.833 231.156 320.844 231.156C320.188 231.156 319.583 231.297 319.031 231.578C318.479 231.849 318.005 232.255 317.609 232.797C317.214 233.339 316.906 234 316.688 234.781C316.469 235.562 316.359 236.464 316.359 237.484V238.141C316.359 238.943 316.469 239.698 316.688 240.406C316.917 241.104 317.245 241.719 317.672 242.25C318.109 242.781 318.635 243.198 319.25 243.5C319.875 243.802 320.583 243.953 321.375 243.953C322.396 243.953 323.26 243.745 323.969 243.328C324.677 242.911 325.297 242.354 325.828 241.656L327.578 243.047C327.214 243.599 326.75 244.125 326.188 244.625C325.625 245.125 324.932 245.531 324.109 245.844C323.297 246.156 322.333 246.312 321.219 246.312ZM341.016 241.516C341.016 241.099 340.922 240.714 340.734 240.359C340.557 239.995 340.188 239.667 339.625 239.375C339.073 239.073 338.24 238.812 337.125 238.594C336.188 238.396 335.339 238.161 334.578 237.891C333.828 237.62 333.188 237.292 332.656 236.906C332.135 236.521 331.734 236.068 331.453 235.547C331.172 235.026 331.031 234.417 331.031 233.719C331.031 233.052 331.177 232.422 331.469 231.828C331.771 231.234 332.193 230.708 332.734 230.25C333.286 229.792 333.948 229.432 334.719 229.172C335.49 228.911 336.349 228.781 337.297 228.781C338.651 228.781 339.807 229.021 340.766 229.5C341.724 229.979 342.458 230.62 342.969 231.422C343.479 232.214 343.734 233.094 343.734 234.062H340.844C340.844 233.594 340.703 233.141 340.422 232.703C340.151 232.255 339.75 231.885 339.219 231.594C338.698 231.302 338.057 231.156 337.297 231.156C336.495 231.156 335.844 231.281 335.344 231.531C334.854 231.771 334.495 232.078 334.266 232.453C334.047 232.828 333.938 233.224 333.938 233.641C333.938 233.953 333.99 234.234 334.094 234.484C334.208 234.724 334.406 234.948 334.688 235.156C334.969 235.354 335.365 235.542 335.875 235.719C336.385 235.896 337.036 236.073 337.828 236.25C339.214 236.562 340.354 236.938 341.25 237.375C342.146 237.812 342.812 238.349 343.25 238.984C343.688 239.62 343.906 240.391 343.906 241.297C343.906 242.036 343.75 242.714 343.438 243.328C343.135 243.943 342.693 244.474 342.109 244.922C341.536 245.359 340.849 245.703 340.047 245.953C339.255 246.193 338.365 246.312 337.375 246.312C335.885 246.312 334.625 246.047 333.594 245.516C332.562 244.984 331.781 244.297 331.25 243.453C330.719 242.609 330.453 241.719 330.453 240.781H333.359C333.401 241.573 333.63 242.203 334.047 242.672C334.464 243.13 334.974 243.458 335.578 243.656C336.182 243.844 336.781 243.938 337.375 243.938C338.167 243.938 338.828 243.833 339.359 243.625C339.901 243.417 340.312 243.13 340.594 242.766C340.875 242.401 341.016 241.984 341.016 241.516ZM350.844 229.094V246H347.938V229.094H350.844ZM347.719 224.609C347.719 224.141 347.859 223.745 348.141 223.422C348.432 223.099 348.859 222.938 349.422 222.938C349.974 222.938 350.396 223.099 350.688 223.422C350.99 223.745 351.141 224.141 351.141 224.609C351.141 225.057 350.99 225.443 350.688 225.766C350.396 226.078 349.974 226.234 349.422 226.234C348.859 226.234 348.432 226.078 348.141 225.766C347.859 225.443 347.719 225.057 347.719 224.609ZM366.438 229.094H369.062V245.641C369.062 247.13 368.76 248.401 368.156 249.453C367.552 250.505 366.708 251.302 365.625 251.844C364.552 252.396 363.312 252.672 361.906 252.672C361.323 252.672 360.635 252.578 359.844 252.391C359.062 252.214 358.292 251.906 357.531 251.469C356.781 251.042 356.151 250.464 355.641 249.734L357.156 248.016C357.865 248.87 358.604 249.464 359.375 249.797C360.156 250.13 360.927 250.297 361.688 250.297C362.604 250.297 363.396 250.125 364.062 249.781C364.729 249.438 365.245 248.927 365.609 248.25C365.984 247.583 366.172 246.76 366.172 245.781V232.812L366.438 229.094ZM354.797 237.734V237.406C354.797 236.115 354.948 234.943 355.25 233.891C355.562 232.828 356.005 231.917 356.578 231.156C357.161 230.396 357.865 229.812 358.688 229.406C359.51 228.99 360.438 228.781 361.469 228.781C362.531 228.781 363.458 228.969 364.25 229.344C365.052 229.708 365.729 230.245 366.281 230.953C366.844 231.651 367.286 232.495 367.609 233.484C367.932 234.474 368.156 235.594 368.281 236.844V238.281C368.167 239.521 367.943 240.635 367.609 241.625C367.286 242.615 366.844 243.458 366.281 244.156C365.729 244.854 365.052 245.391 364.25 245.766C363.448 246.13 362.51 246.312 361.438 246.312C360.427 246.312 359.51 246.099 358.688 245.672C357.875 245.245 357.177 244.646 356.594 243.875C356.01 243.104 355.562 242.198 355.25 241.156C354.948 240.104 354.797 238.964 354.797 237.734ZM357.688 237.406V237.734C357.688 238.578 357.771 239.37 357.938 240.109C358.115 240.849 358.38 241.5 358.734 242.062C359.099 242.625 359.562 243.068 360.125 243.391C360.688 243.703 361.359 243.859 362.141 243.859C363.099 243.859 363.891 243.656 364.516 243.25C365.141 242.844 365.635 242.307 366 241.641C366.375 240.974 366.667 240.25 366.875 239.469V235.703C366.76 235.13 366.583 234.578 366.344 234.047C366.115 233.505 365.812 233.026 365.438 232.609C365.073 232.182 364.62 231.844 364.078 231.594C363.536 231.344 362.901 231.219 362.172 231.219C361.38 231.219 360.698 231.385 360.125 231.719C359.562 232.042 359.099 232.49 358.734 233.062C358.38 233.625 358.115 234.281 357.938 235.031C357.771 235.771 357.688 236.562 357.688 237.406ZM376.344 232.703V246H373.453V229.094H376.188L376.344 232.703ZM375.656 236.906L374.453 236.859C374.464 235.703 374.635 234.635 374.969 233.656C375.302 232.667 375.771 231.807 376.375 231.078C376.979 230.349 377.698 229.786 378.531 229.391C379.375 228.984 380.307 228.781 381.328 228.781C382.161 228.781 382.911 228.896 383.578 229.125C384.245 229.344 384.812 229.698 385.281 230.188C385.76 230.677 386.125 231.312 386.375 232.094C386.625 232.865 386.75 233.807 386.75 234.922V246H383.844V234.891C383.844 234.005 383.714 233.297 383.453 232.766C383.193 232.224 382.812 231.833 382.312 231.594C381.812 231.344 381.198 231.219 380.469 231.219C379.75 231.219 379.094 231.37 378.5 231.672C377.917 231.974 377.411 232.391 376.984 232.922C376.568 233.453 376.24 234.062 376 234.75C375.771 235.427 375.656 236.146 375.656 236.906ZM391.188 244.469C391.188 243.979 391.339 243.568 391.641 243.234C391.953 242.891 392.401 242.719 392.984 242.719C393.568 242.719 394.01 242.891 394.312 243.234C394.625 243.568 394.781 243.979 394.781 244.469C394.781 244.948 394.625 245.354 394.312 245.688C394.01 246.021 393.568 246.188 392.984 246.188C392.401 246.188 391.953 246.021 391.641 245.688C391.339 245.354 391.188 244.948 391.188 244.469Z" fill="#18181B"/>
</svg>
